<svg width="1084" height="315" viewBox="0 0 1084 315" fill="none" xmlns="http://www.w3.org/2000/svg">
<path d="M171.938 12.1143C330.044 73.7036 295.792 314.732 104.444 314.732C78.6675 314.732 60.8169 317.47 60.8169 302.642C60.8169 267.622 102.609 297.295 160.821 274.236C210.373 254.705 237.654 214.025 240.571 166.731C241.708 149 226.829 142.22 209.548 142.22C165.389 142.22 128.458 142.22 84.4098 142.22C62.8349 142.22 60.8169 126.179 60.8169 114.751C60.8169 104.553 60.8169 94.3375 60.8169 84.14C60.8169 69.643 69.201 61.1726 83.4741 61.1726C111.36 61.1726 150.639 58.7656 183.001 89.3765C197.88 103.874 198.008 111.738 212.96 111.738C223.069 111.738 236.076 113.06 224.151 92.6655C209.658 68.0445 187.404 50.773 161.023 40.5571C130.311 28.706 105.746 30.6903 62.6331 30.6903C39.1136 30.6903 30.3993 45.5364 30.3993 62.7895C30.3993 89.303 30.3993 115.761 30.3993 142.22C30.3993 161.696 36.9671 172.702 60.8352 172.702C101.38 172.702 141.869 172.702 182.359 172.702C199.989 172.702 208.63 182.771 203.145 195.798C198.448 207.006 191.825 216.744 183.038 225.141C148.125 258.416 105.746 253.749 60.8535 253.749C7.08154 253.749 48.7269 315.927 13.0623 314.99C1.6695 314.99 0 299.151 0 285.775C0 200.373 0 114.898 0 29.4777C0 13.768 8.43914 0.20804 28.5463 0.20804C105.911 0.244788 133.797 -2.65829 171.938 12.1143Z" fill="url(#paint0_linear_3_5)"/>
<path d="M695.746 266C693.525 266 691.846 265.396 690.707 264.187C689.569 262.952 689 261.194 689 258.911V257.3H693.331V259.233C693.331 261.059 694.122 261.972 695.704 261.972C696.482 261.972 697.065 261.757 697.453 261.328C697.87 260.871 698.078 260.146 698.078 259.153C698.078 257.971 697.8 256.937 697.245 256.051C696.69 255.138 695.663 254.051 694.164 252.789C692.276 251.178 690.957 249.728 690.208 248.439C689.458 247.123 689.083 245.646 689.083 244.008C689.083 241.78 689.666 240.061 690.832 238.853C691.998 237.618 693.692 237 695.913 237C698.106 237 699.758 237.618 700.868 238.853C702.006 240.061 702.575 241.806 702.575 244.089V245.257H698.245V243.807C698.245 242.84 698.05 242.142 697.662 241.712C697.273 241.256 696.704 241.028 695.954 241.028C694.427 241.028 693.664 241.927 693.664 243.726C693.664 244.747 693.942 245.7 694.497 246.586C695.08 247.472 696.121 248.546 697.62 249.808C699.535 251.419 700.854 252.883 701.576 254.199C702.298 255.514 702.659 257.058 702.659 258.831C702.659 261.14 702.062 262.912 700.868 264.147C699.702 265.382 697.995 266 695.746 266Z" fill="#9198AB"/>
<path d="M718.985 266C716.737 266 715.015 265.382 713.822 264.147C712.628 262.912 712.031 261.167 712.031 258.911V244.089C712.031 241.833 712.628 240.088 713.822 238.853C715.015 237.618 716.737 237 718.985 237C721.234 237 722.955 237.618 724.149 238.853C725.343 240.088 725.94 241.833 725.94 244.089V258.911C725.94 261.167 725.343 262.912 724.149 264.147C722.955 265.382 721.234 266 718.985 266ZM718.985 261.972C720.568 261.972 721.359 261.046 721.359 259.193V243.807C721.359 241.954 720.568 241.028 718.985 241.028C717.403 241.028 716.612 241.954 716.612 243.807V259.193C716.612 261.046 717.403 261.972 718.985 261.972Z" fill="#9198AB"/>
<path d="M736.116 237.403H748.234V241.431H740.697V249.285H746.61V253.312H740.697V265.597H736.116V237.403Z" fill="#9198AB"/>
<path d="M761.498 241.431H756.709V237.403H770.868V241.431H766.079V265.597H761.498V241.431Z" fill="#9198AB"/>
<path d="M779.244 237.403H783.659L785.699 259.072H785.782L787.948 237.403H792.945L795.11 259.072H795.193L797.234 237.403H801.19L798.233 265.597H792.528L790.446 246.586H790.363L788.281 265.597H782.201L779.244 237.403Z" fill="#9198AB"/>
<path d="M813.556 237.403H819.761L824.508 265.597H819.928L819.095 259.999V260.079H813.889L813.057 265.597H808.809L813.556 237.403ZM818.553 256.253L816.513 242.317H816.43L814.431 256.253H818.553Z" fill="#9198AB"/>
<path d="M833.81 237.403H840.597C842.957 237.403 844.678 237.94 845.761 239.014C846.844 240.061 847.385 241.686 847.385 243.887V245.619C847.385 248.546 846.386 250.399 844.387 251.178V251.258C845.497 251.581 846.275 252.238 846.719 253.232C847.191 254.225 847.427 255.555 847.427 257.219V262.174C847.427 262.979 847.454 263.637 847.51 264.147C847.565 264.631 847.704 265.114 847.926 265.597H843.262C843.096 265.141 842.985 264.711 842.929 264.308C842.874 263.906 842.846 263.181 842.846 262.133V256.978C842.846 255.689 842.624 254.789 842.18 254.279C841.763 253.769 841.028 253.514 839.973 253.514H838.39V265.597H833.81V237.403ZM840.056 249.486C840.972 249.486 841.652 249.258 842.096 248.801C842.568 248.345 842.804 247.58 842.804 246.506V244.331C842.804 243.31 842.61 242.572 842.221 242.115C841.86 241.659 841.277 241.431 840.472 241.431H838.39V249.486H840.056Z" fill="#9198AB"/>
<path d="M857.684 237.403H870.177V241.431H862.265V248.882H868.553V252.91H862.265V261.569H870.177V265.597H857.684V237.403Z" fill="#9198AB"/>
<path d="M899.594 266C897.373 266 895.694 265.396 894.555 264.187C893.417 262.952 892.848 261.194 892.848 258.911V257.3H897.179V259.233C897.179 261.059 897.97 261.972 899.553 261.972C900.33 261.972 900.913 261.757 901.302 261.328C901.718 260.871 901.926 260.146 901.926 259.153C901.926 257.971 901.649 256.937 901.093 256.051C900.538 255.138 899.511 254.051 898.012 252.789C896.124 251.178 894.805 249.728 894.056 248.439C893.306 247.123 892.931 245.646 892.931 244.008C892.931 241.78 893.514 240.061 894.68 238.853C895.846 237.618 897.54 237 899.761 237C901.954 237 903.606 237.618 904.716 238.853C905.854 240.061 906.423 241.806 906.423 244.089V245.257H902.093V243.807C902.093 242.84 901.898 242.142 901.51 241.712C901.121 241.256 900.552 241.028 899.802 241.028C898.276 241.028 897.512 241.927 897.512 243.726C897.512 244.747 897.79 245.7 898.345 246.586C898.928 247.472 899.969 248.546 901.468 249.808C903.384 251.419 904.702 252.883 905.424 254.199C906.146 255.514 906.507 257.058 906.507 258.831C906.507 261.14 905.91 262.912 904.716 264.147C903.55 265.382 901.843 266 899.594 266Z" fill="#9198AB"/>
<path d="M922.833 266C920.585 266 918.864 265.382 917.67 264.147C916.476 262.912 915.879 261.167 915.879 258.911V244.089C915.879 241.833 916.476 240.088 917.67 238.853C918.864 237.618 920.585 237 922.833 237C925.082 237 926.803 237.618 927.997 238.853C929.191 240.088 929.788 241.833 929.788 244.089V258.911C929.788 261.167 929.191 262.912 927.997 264.147C926.803 265.382 925.082 266 922.833 266ZM922.833 261.972C924.416 261.972 925.207 261.046 925.207 259.193V243.807C925.207 241.954 924.416 241.028 922.833 241.028C921.251 241.028 920.46 241.954 920.46 243.807V259.193C920.46 261.046 921.251 261.972 922.833 261.972Z" fill="#9198AB"/>
<path d="M939.965 237.403H944.545V261.569H952.083V265.597H939.965V237.403Z" fill="#9198AB"/>
<path d="M968.021 266C965.8 266 964.107 265.396 962.941 264.187C961.775 262.952 961.192 261.194 961.192 258.911V237.403H965.772V259.233C965.772 260.2 965.967 260.898 966.355 261.328C966.772 261.757 967.355 261.972 968.104 261.972C968.854 261.972 969.423 261.757 969.812 261.328C970.228 260.898 970.436 260.2 970.436 259.233V237.403H974.85V258.911C974.85 261.194 974.267 262.952 973.101 264.187C971.935 265.396 970.242 266 968.021 266Z" fill="#9198AB"/>
<path d="M988.773 241.431H983.984V237.403H998.143V241.431H993.354V265.597H988.773V241.431Z" fill="#9198AB"/>
<path d="M1007.44 237.403H1012.02V265.597H1007.44V237.403Z" fill="#9198AB"/>
<path d="M1029.15 266C1026.9 266 1025.18 265.382 1023.99 264.147C1022.79 262.912 1022.2 261.167 1022.2 258.911V244.089C1022.2 241.833 1022.79 240.088 1023.99 238.853C1025.18 237.618 1026.9 237 1029.15 237C1031.4 237 1033.12 237.618 1034.31 238.853C1035.51 240.088 1036.11 241.833 1036.11 244.089V258.911C1036.11 261.167 1035.51 262.912 1034.31 264.147C1033.12 265.382 1031.4 266 1029.15 266ZM1029.15 261.972C1030.73 261.972 1031.52 261.046 1031.52 259.193V243.807C1031.52 241.954 1030.73 241.028 1029.15 241.028C1027.57 241.028 1026.78 241.954 1026.78 243.807V259.193C1026.78 261.046 1027.57 261.972 1029.15 261.972Z" fill="#9198AB"/>
<path d="M1046.28 237.403H1052.03L1056.48 254.279H1056.57V237.403H1060.65V265.597H1055.94L1050.45 245.015H1050.36V265.597H1046.28V237.403Z" fill="#9198AB"/>
<path d="M1077.09 266C1074.87 266 1073.19 265.396 1072.05 264.187C1070.91 262.952 1070.34 261.194 1070.34 258.911V257.3H1074.67V259.233C1074.67 261.059 1075.46 261.972 1077.05 261.972C1077.82 261.972 1078.41 261.757 1078.79 261.328C1079.21 260.871 1079.42 260.146 1079.42 259.153C1079.42 257.971 1079.14 256.937 1078.59 256.051C1078.03 255.138 1077 254.051 1075.51 252.789C1073.62 251.178 1072.3 249.728 1071.55 248.439C1070.8 247.123 1070.42 245.646 1070.42 244.008C1070.42 241.78 1071.01 240.061 1072.17 238.853C1073.34 237.618 1075.03 237 1077.25 237C1079.45 237 1081.1 237.618 1082.21 238.853C1083.35 240.061 1083.92 241.806 1083.92 244.089V245.257H1079.59V243.807C1079.59 242.84 1079.39 242.142 1079 241.712C1078.61 241.256 1078.05 241.028 1077.3 241.028C1075.77 241.028 1075.01 241.927 1075.01 243.726C1075.01 244.747 1075.28 245.7 1075.84 246.586C1076.42 247.472 1077.46 248.546 1078.96 249.808C1080.88 251.419 1082.2 252.883 1082.92 254.199C1083.64 255.514 1084 257.058 1084 258.831C1084 261.14 1083.4 262.912 1082.21 264.147C1081.04 265.382 1079.34 266 1077.09 266Z" fill="#9198AB"/>
<path d="M391.101 100.416C398.699 100.416 405.776 101.758 412.331 104.441C419.035 107.124 424.994 110.776 430.208 115.398V51H449.203V158.776C449.203 166.826 447.638 174.429 444.51 181.584C441.53 188.59 437.433 194.702 432.219 199.919C427.005 205.137 420.822 209.311 413.671 212.441C406.67 215.422 399.146 216.913 391.101 216.913C383.057 216.913 375.533 215.422 368.531 212.441C361.529 209.311 355.347 205.137 349.983 199.919C344.769 194.702 340.598 188.59 337.469 181.584C334.49 174.429 333 166.826 333 158.776C333 150.727 334.49 143.199 337.469 136.193C340.598 129.037 344.769 122.851 349.983 117.634C355.347 112.267 361.529 108.093 368.531 105.112C375.533 101.981 383.057 100.416 391.101 100.416ZM391.101 119.646C385.738 119.646 380.673 120.689 375.906 122.776C371.138 124.714 366.967 127.472 363.391 131.05C359.965 134.627 357.209 138.801 355.123 143.571C353.038 148.342 351.995 153.41 351.995 158.776C351.995 164.143 353.038 169.211 355.123 173.981C357.209 178.752 359.965 182.925 363.391 186.503C366.967 189.932 371.138 192.689 375.906 194.776C380.673 196.863 385.738 197.907 391.101 197.907C396.465 197.907 401.53 196.863 406.297 194.776C411.064 192.689 415.236 189.932 418.811 186.503C422.387 182.925 425.143 178.752 427.079 173.981C429.165 169.211 430.208 164.143 430.208 158.776C430.208 153.41 429.165 148.342 427.079 143.571C425.143 138.801 422.387 134.627 418.811 131.05C415.236 127.472 411.064 124.714 406.297 122.776C401.53 120.689 396.465 119.646 391.101 119.646Z" fill="url(#paint1_linear_3_5)"/>
<path d="M515.162 100.64C521.27 100.64 527.006 101.832 532.369 104.217C537.881 106.602 542.648 109.807 546.671 113.832C550.693 117.857 553.896 122.627 556.28 128.143C558.664 133.509 559.855 139.248 559.855 145.36V214.901H540.637V145.36C540.637 141.783 539.967 138.503 538.626 135.522C537.285 132.391 535.423 129.708 533.039 127.472C530.805 125.087 528.123 123.224 524.995 121.882C522.015 120.54 518.737 119.87 515.162 119.87C511.587 119.87 508.235 120.54 505.106 121.882C501.977 123.224 499.221 125.087 496.838 127.472C494.603 129.708 492.815 132.391 491.475 135.522C490.134 138.503 489.463 141.783 489.463 145.36V214.901H470.245V51.2236H489.463V108.466C492.89 105.932 496.838 103.994 501.307 102.652C505.776 101.311 510.395 100.64 515.162 100.64Z" fill="url(#paint2_linear_3_5)"/>
<path d="M625.368 216.913C619.26 216.913 613.45 215.72 607.937 213.335C602.574 210.95 597.881 207.745 593.859 203.72C589.837 199.696 586.634 195 584.25 189.634C581.866 184.118 580.674 178.304 580.674 172.193V102.876H599.893V172.193C599.893 175.77 600.563 179.124 601.904 182.255C603.245 185.385 605.032 188.143 607.267 190.528C609.651 192.764 612.332 194.553 615.312 195.894C618.44 197.236 621.792 197.907 625.368 197.907C628.943 197.907 632.295 197.236 635.424 195.894C638.552 194.553 641.234 192.764 643.469 190.528C645.852 188.143 647.714 185.385 649.055 182.255C650.396 179.124 651.066 175.77 651.066 172.193V102.876H670.061V222.279C670.061 228.54 668.795 234.354 666.262 239.72C663.73 245.236 660.229 250.006 655.759 254.031C651.439 258.056 646.299 261.186 640.34 263.422C634.381 265.807 627.975 267 621.122 267V247.994C625.293 247.994 629.167 247.323 632.742 245.981C636.467 244.64 639.67 242.776 642.351 240.391C645.033 238.006 647.119 235.248 648.608 232.118C650.247 229.137 651.066 225.857 651.066 222.279V208.863C647.342 211.397 643.32 213.41 638.999 214.901C634.679 216.242 630.135 216.913 625.368 216.913Z" fill="url(#paint3_linear_3_5)"/>
<path d="M750.919 100.416C758.964 100.416 766.562 101.981 773.713 105.112C780.864 108.093 787.046 112.267 792.261 117.634C797.624 122.851 801.795 129.037 804.775 136.193C807.903 143.199 809.468 150.727 809.468 158.776V214.677H790.026V202.155C784.812 206.776 778.853 210.429 772.149 213.112C765.594 215.646 758.517 216.913 750.919 216.913C742.875 216.913 735.351 215.422 728.349 212.441C721.347 209.311 715.165 205.137 709.801 199.919C704.587 194.702 700.416 188.59 697.287 181.584C694.308 174.429 692.818 166.826 692.818 158.776C692.818 150.727 694.308 143.199 697.287 136.193C700.416 129.037 704.587 122.851 709.801 117.634C715.165 112.267 721.347 108.093 728.349 105.112C735.351 101.981 742.875 100.416 750.919 100.416ZM750.919 119.646C745.556 119.646 740.491 120.689 735.724 122.776C730.956 124.714 726.785 127.472 723.21 131.05C719.783 134.627 717.027 138.801 714.941 143.571C712.856 148.342 711.813 153.41 711.813 158.776C711.813 164.143 712.856 169.211 714.941 173.981C717.027 178.752 719.783 182.925 723.21 186.503C726.785 189.932 730.956 192.689 735.724 194.776C740.491 196.863 745.556 197.907 750.919 197.907C756.432 197.907 761.571 196.863 766.339 194.776C771.106 192.689 775.203 189.932 778.629 186.503C782.205 182.925 784.961 178.752 786.897 173.981C788.983 169.211 790.026 164.143 790.026 158.776C790.026 153.41 788.983 148.342 786.897 143.571C784.961 138.801 782.205 134.627 778.629 131.05C775.203 127.472 771.106 124.714 766.339 122.776C761.571 120.689 756.432 119.646 750.919 119.646Z" fill="url(#paint4_linear_3_5)"/>
<path d="M889.75 100.64C897.795 100.64 905.318 102.205 912.32 105.335C919.471 108.317 925.653 112.416 930.868 117.634C936.231 122.851 940.402 129.037 943.382 136.193C946.51 143.348 948.075 150.95 948.075 159V214.901H928.856V159C928.856 153.634 927.814 148.565 925.728 143.795C923.791 139.025 921.035 134.851 917.46 131.273C914.033 127.696 909.936 124.938 905.169 123C900.402 120.913 895.262 119.87 889.75 119.87C884.387 119.87 879.321 120.913 874.554 123C869.787 124.938 865.615 127.696 862.04 131.273C858.613 134.851 855.857 139.025 853.772 143.795C851.686 148.565 850.643 153.634 850.643 159V214.901H831.648V159C831.648 150.95 833.138 143.348 836.118 136.193C839.246 129.037 843.418 122.851 848.632 117.634C853.995 112.416 860.178 108.317 867.18 105.335C874.182 102.205 881.705 100.64 889.75 100.64Z" fill="url(#paint5_linear_3_5)"/>
<path d="M1025.45 100.416C1033.5 100.416 1041.09 101.981 1048.25 105.112C1055.4 108.093 1061.58 112.267 1066.79 117.634C1072.16 122.851 1076.33 129.037 1079.31 136.193C1082.44 143.199 1084 150.727 1084 158.776V214.677H1064.56V202.155C1059.34 206.776 1053.39 210.429 1046.68 213.112C1040.13 215.646 1033.05 216.913 1025.45 216.913C1017.41 216.913 1009.88 215.422 1002.88 212.441C995.88 209.311 989.697 205.137 984.334 199.919C979.12 194.702 974.948 188.59 971.82 181.584C968.84 174.429 967.35 166.826 967.35 158.776C967.35 150.727 968.84 143.199 971.82 136.193C974.948 129.037 979.12 122.851 984.334 117.634C989.697 112.267 995.88 108.093 1002.88 105.112C1009.88 101.981 1017.41 100.416 1025.45 100.416ZM1025.45 119.646C1020.09 119.646 1015.02 120.689 1010.26 122.776C1005.49 124.714 1001.32 127.472 997.742 131.05C994.315 134.627 991.559 138.801 989.474 143.571C987.388 148.342 986.345 153.41 986.345 158.776C986.345 164.143 987.388 169.211 989.474 173.981C991.559 178.752 994.315 182.925 997.742 186.503C1001.32 189.932 1005.49 192.689 1010.26 194.776C1015.02 196.863 1020.09 197.907 1025.45 197.907C1030.96 197.907 1036.1 196.863 1040.87 194.776C1045.64 192.689 1049.74 189.932 1053.16 186.503C1056.74 182.925 1059.49 178.752 1061.43 173.981C1063.52 169.211 1064.56 164.143 1064.56 158.776C1064.56 153.41 1063.52 148.342 1061.43 143.571C1059.49 138.801 1056.74 134.627 1053.16 131.05C1049.74 127.472 1045.64 124.714 1040.87 122.776C1036.1 120.689 1030.96 119.646 1025.45 119.646Z" fill="url(#paint6_linear_3_5)"/>
<defs>
<linearGradient id="paint0_linear_3_5" x1="-5.50001" y1="-0.999997" x2="249" y2="311" gradientUnits="userSpaceOnUse">
<stop stop-color="#0B37AE"/>
<stop offset="1" stop-color="#5CDDC7"/>
</linearGradient>
<linearGradient id="paint1_linear_3_5" x1="333" y1="51" x2="1084.13" y2="266.562" gradientUnits="userSpaceOnUse">
<stop stop-color="#0830AD"/>
<stop offset="1" stop-color="#5EE0C8"/>
</linearGradient>
<linearGradient id="paint2_linear_3_5" x1="333" y1="51" x2="1084.13" y2="266.562" gradientUnits="userSpaceOnUse">
<stop stop-color="#0830AD"/>
<stop offset="1" stop-color="#5EE0C8"/>
</linearGradient>
<linearGradient id="paint3_linear_3_5" x1="333" y1="51" x2="1084.13" y2="266.562" gradientUnits="userSpaceOnUse">
<stop stop-color="#0830AD"/>
<stop offset="1" stop-color="#5EE0C8"/>
</linearGradient>
<linearGradient id="paint4_linear_3_5" x1="333" y1="51" x2="1084.13" y2="266.562" gradientUnits="userSpaceOnUse">
<stop stop-color="#0830AD"/>
<stop offset="1" stop-color="#5EE0C8"/>
</linearGradient>
<linearGradient id="paint5_linear_3_5" x1="333" y1="51" x2="1084.13" y2="266.562" gradientUnits="userSpaceOnUse">
<stop stop-color="#0830AD"/>
<stop offset="1" stop-color="#5EE0C8"/>
</linearGradient>
<linearGradient id="paint6_linear_3_5" x1="333" y1="51" x2="1084.13" y2="266.562" gradientUnits="userSpaceOnUse">
<stop stop-color="#0830AD"/>
<stop offset="1" stop-color="#5EE0C8"/>
</linearGradient>
</defs>
</svg>
